<svg width="1600" height="1200" viewBox="0 0 1600 1200" fill="none" xmlns="http://www.w3.org/2000/svg">
  <rect width="1600" height="1200" fill="#ECE7DE"/>
  <rect y="760" width="1600" height="440" fill="#D7CEC1"/>
  <rect y="660" width="1600" height="100" fill="#C5BBAC"/>
  <rect x="120" y="300" width="560" height="500" rx="32" fill="#F8F6F1"/>
  <rect x="174" y="356" width="198" height="272" rx="18" fill="#728270"/>
  <rect x="404" y="356" width="220" height="150" rx="18" fill="#C3B79F"/>
  <rect x="404" y="528" width="220" height="100" rx="18" fill="#A89468"/>
  <rect x="760" y="170" width="720" height="700" rx="40" fill="#FAF8F3"/>
  <rect x="818" y="228" width="606" height="146" rx="22" fill="#D7CEC1"/>
  <rect x="818" y="402" width="276" height="252" rx="24" fill="#465446"/>
  <rect x="1122" y="402" width="302" height="252" rx="24" fill="#BFB29F"/>
  <rect x="818" y="684" width="606" height="118" rx="22" fill="#8C9A89"/>
  <circle cx="1194" cy="276" r="76" fill="#F4F1EB"/>
  <path d="M0 930C142 886 232 874 360 890C522 911 612 1000 818 1000C1024 1000 1128 928 1308 908C1420 896 1506 914 1600 964V1200H0V930Z" fill="#728270"/>
</svg>
