<svg width="1600" height="900" viewBox="0 0 1600 900" fill="none" xmlns="http://www.w3.org/2000/svg">
  <rect width="1600" height="900" fill="#F4F1EB"/>
  <rect y="590" width="1600" height="310" fill="#D7CEC1"/>
  <rect x="92" y="112" width="1416" height="608" rx="42" fill="#FBF9F4"/>
  <rect x="160" y="182" width="486" height="468" rx="28" fill="#465446"/>
  <rect x="690" y="182" width="750" height="168" rx="24" fill="#C8BCA5"/>
  <rect x="690" y="382" width="360" height="268" rx="24" fill="#728270"/>
  <rect x="1080" y="382" width="360" height="268" rx="24" fill="#B9AD9A"/>
  <path d="M0 760C160 716 308 702 474 722C664 744 798 818 990 818C1190 818 1314 740 1480 724C1528 718 1568 718 1600 726V900H0V760Z" fill="#87958A"/>
</svg>
